<?xml version="1.0" encoding="UTF-8" standalone="no"?>
<svg width="20px" height="12px" viewBox="0 0 20 12" version="1.1" xmlns="http://www.w3.org/2000/svg" xmlns:xlink="http://www.w3.org/1999/xlink" xmlns:sketch="http://www.bohemiancoding.com/sketch/ns">
    <!-- Generator: Sketch 3.3.3 (12081) - http://www.bohemiancoding.com/sketch -->
    <title>Fill 188 Copy 2 + Fill 188 Copy 3</title>
    <desc>Created with Sketch.</desc>
    <defs></defs>
    <g id="case-studies" stroke="none" stroke-width="1" fill="none" fill-rule="evenodd" sketch:type="MSPage">
        <g id="Rectangle-128-Copy-2-+-Oval-9-Copy-2-+-Fill-188-Copy-2-Copy-Copy" sketch:type="MSLayerGroup" transform="translate(-9.000000, -148.807320)" fill="#41414B">
            <g id="Fill-188-Copy-2-+-Fill-188-Copy-3" transform="translate(9.096411, 148.869541)" sketch:type="MSShapeGroup">
                <path d="M12.9795599,1.57599059 L17.0799077,5.67425146 L12.9260816,9.82990364 C12.7904294,9.9707732 12.7066903,10.161208 12.7066903,10.3725123 C12.7066903,10.8055558 13.057299,11.155121 13.489299,11.155121 C13.7003425,11.155121 13.8918207,11.0716428 14.0324294,10.9359906 L14.0326903,10.9359906 L18.7283425,6.24033842 L18.7280816,6.24033842 C18.8757338,6.09686016 18.9675599,5.89859929 18.9675599,5.67686016 C18.9675599,5.67686016 18.9675599,5.67686016 18.9675599,5.67425146 C18.9675599,5.45251233 18.8757338,5.25164277 18.7280816,5.1107732 L18.7283425,5.1107732 L14.0326903,0.415121029 L14.0308642,0.415121029 C13.8902555,0.28207755 13.6995599,0.19859929 13.489299,0.19859929 C13.057299,0.19859929 12.7066903,0.548164507 12.7066903,0.981207985 C12.7066903,1.21859929 12.8126033,1.42990364 12.9795599,1.57599059" id="Fill-188-Copy-2"></path>
                <path d="M0.979559856,1.57599059 L5.07990768,5.67425146 L0.926081595,9.82990364 C0.790429421,9.9707732 0.706690291,10.161208 0.706690291,10.3725123 C0.706690291,10.8055558 1.05729899,11.155121 1.48929899,11.155121 C1.70034246,11.155121 1.89182073,11.0716428 2.03242942,10.9359906 L2.03269029,10.9359906 L6.72834246,6.24033842 L6.7280816,6.24033842 C6.87573377,6.09686016 6.96755986,5.89859929 6.96755986,5.67686016 C6.96755986,5.67686016 6.96755986,5.67686016 6.96755986,5.67425146 C6.96755986,5.45251233 6.87573377,5.25164277 6.7280816,5.1107732 L6.72834246,5.1107732 L2.03269029,0.415121029 L2.0308642,0.415121029 C1.89025551,0.28207755 1.69955986,0.19859929 1.48929899,0.19859929 C1.05729899,0.19859929 0.706690291,0.548164507 0.706690291,0.981207985 C0.706690291,1.21859929 0.812603334,1.42990364 0.979559856,1.57599059" id="Fill-188-Copy-3" transform="translate(3.837125, 5.676860) rotate(-180.000000) translate(-3.837125, -5.676860) "></path>
            </g>
        </g>
    </g>
</svg>