<?xml version="1.0" encoding="UTF-8" standalone="no"?>
<svg viewBox="0 0 41 41" version="1.1" xmlns="http://www.w3.org/2000/svg" xmlns:xlink="http://www.w3.org/1999/xlink" xmlns:sketch="http://www.bohemiancoding.com/sketch/ns">
    <g id="Page-1" stroke="none" stroke-width="1" fill="none" fill-rule="evenodd" sketch:type="MSPage">
        <g id="Oval-2-+-Fill-186" sketch:type="MSLayerGroup" fill="#000000">
            <path d="M20.5,41 C31.8218374,41 41,31.8218374 41,20.5 C41,9.17816263 31.8218374,0 20.5,0 C9.17816263,0 0,9.17816263 0,20.5 C0,31.8218374 9.17816263,41 20.5,41 L20.5,41 Z M20.5,39 C10.2827321,39 2,30.7172679 2,20.5 C2,10.2827321 10.2827321,2 20.5,2 C30.7172679,2 39,10.2827321 39,20.5 C39,30.7172679 30.7172679,39 20.5,39 L20.5,39 Z" id="Shape" sketch:type="MSShapeGroup"></path>
            <path d="M26.6642941,15.9576471 L22.1223235,20.5 L26.6642941,25.0423529 C26.8719118,25.2488235 27,25.5355882 27,25.8529412 C27,26.4876471 26.4865,27 25.8529412,27 C25.5363529,27 25.2495882,26.87 25.0419706,26.6635294 L20.5,22.1211765 L15.9584118,26.6635294 C15.7507941,26.87 15.4640294,27 15.1470588,27 C14.5138824,27 14,26.4876471 14,25.8529412 C14,25.5355882 14.1284706,25.2488235 14.3360882,25.0423529 L18.8780588,20.5 L14.3360882,15.9576471 C14.1284706,15.7511765 14,15.4644118 14,15.1470588 C14,14.5123529 14.5138824,14 15.1470588,14 C15.4640294,14 15.7507941,14.13 15.9584118,14.3364706 L20.5,18.8788235 L25.0419706,14.3364706 C25.2495882,14.13 25.5363529,14 25.8529412,14 C26.4865,14 27,14.5123529 27,15.1470588 C27,15.4644118 26.8719118,15.7511765 26.6642941,15.9576471" id="Fill-186" sketch:type="MSShapeGroup"></path>
        </g>
    </g>
</svg>
