<?xml version="1.0" standalone="no"?>
<!DOCTYPE svg PUBLIC "-//W3C//DTD SVG 20010904//EN"
 "http://www.w3.org/TR/2001/REC-SVG-20010904/DTD/svg10.dtd">
<svg version="1.0" xmlns="http://www.w3.org/2000/svg"
 width="300.000000pt" height="300.000000pt" viewBox="0 0 300.000000 300.000000"
 preserveAspectRatio="xMidYMid meet">
<metadata>
Created by potrace 1.11, written by Peter Selinger 2001-2013
</metadata>
<g transform="translate(0.000000,300.000000) scale(0.100000,-0.100000)"
fill="#000000" stroke="none">
<path d="M1937 2268 c-150 -35 -300 -121 -405 -232 -29 -31 -54 -56 -55 -56
-1 0 -2 65 -2 145 l0 145 -252 0 -253 0 0 -265 c0 -146 -3 -265 -7 -266 -50
-7 -453 -2 -456 6 -1 6 -2 126 -2 268 l1 257 -253 0 -253 0 0 -758 0 -757 253
0 252 1 1 259 c1 143 2 266 3 273 1 9 54 12 231 12 l230 0 2 -272 3 -273 240
0 c132 -1 245 1 250 2 7 2 10 53 10 133 0 72 0 130 1 130 1 0 26 -25 55 -55
115 -118 283 -211 434 -239 182 -34 418 7 569 98 33 20 65 36 70 36 6 0 27
-15 47 -33 51 -47 125 -107 132 -107 3 0 53 57 112 127 92 111 104 129 90 139
-9 7 -41 34 -72 60 -31 27 -63 54 -70 59 -12 9 -9 21 16 75 110 235 89 518
-54 741 -180 279 -540 424 -868 347z m336 -471 c89 -42 162 -132 182 -226 8
-38 9 -121 1 -129 -3 -2 -34 18 -68 46 -35 28 -66 53 -70 54 -4 2 -55 -53
-113 -122 l-106 -125 63 -57 62 -56 -48 -7 c-153 -23 -299 55 -365 194 -38 81
-36 192 3 273 82 169 284 237 459 155z"/>
</g>
</svg>
