<?xml version="1.0" encoding="UTF-8" standalone="no"?>
<svg width="28px" height="34px" viewBox="0 0 28 34" version="1.1" xmlns="http://www.w3.org/2000/svg" xmlns:xlink="http://www.w3.org/1999/xlink" xmlns:sketch="http://www.bohemiancoding.com/sketch/ns">
    <!-- Generator: Sketch 3.3.3 (12081) - http://www.bohemiancoding.com/sketch -->
    <title>C Copy 3 + C Copy 2</title>
    <desc>Created with Sketch.</desc>
    <defs></defs>
    <g id="case-studies" stroke="none" stroke-width="1" fill="none" fill-rule="evenodd" sketch:type="MSPage">
        <g id="school-improvement-case-study" sketch:type="MSArtboardGroup" transform="translate(-335.000000, -5228.000000)">
            <g id="C-Copy-3-+-C-Copy-2" sketch:type="MSLayerGroup" transform="translate(335.000000, 5228.000000)">
                <path d="M20.9875556,1.97244444 C18.8595556,0.927111111 16.0968889,0.217777778 13.2595556,0.217777778 C5.56888889,0.217777778 0.678222222,4.99644444 0.678222222,12.5377778 C0.678222222,20.3777778 5.60622222,24.6711111 13.0728889,24.6711111 C15.7982222,24.6711111 18.8968889,23.9991111 20.7262222,22.9911111 L19.4942222,17.7271111 C17.7395556,18.8844444 15.6115556,19.6311111 13.3342222,19.6311111 C9.11555556,19.6311111 6.65155556,16.8311111 6.65155556,12.3884444 C6.65155556,7.98311111 9.26488889,5.25777778 13.2968889,5.25777778 C15.3875556,5.25777778 17.4408889,5.89244444 19.1955556,6.93777778 L20.9875556,1.97244444 Z" id="C-Copy-3" fill="#8DC73F" sketch:type="MSShapeGroup"></path>
                <path d="M27.2097778,10.528 C25.0817778,9.48266667 22.3191111,8.77333333 19.4817778,8.77333333 C11.7911111,8.77333333 6.90044444,13.552 6.90044444,21.0933333 C6.90044444,28.9333333 11.8284444,33.2266667 19.2951111,33.2266667 C22.0204444,33.2266667 25.1191111,32.5546667 26.9484444,31.5466667 L25.7164444,26.2826667 C23.9617778,27.44 21.8337778,28.1866667 19.5564444,28.1866667 C15.3377778,28.1866667 12.8737778,25.3866667 12.8737778,20.944 C12.8737778,16.5386667 15.4871111,13.8133333 19.5191111,13.8133333 C21.6097778,13.8133333 23.6631111,14.448 25.4177778,15.4933333 L27.2097778,10.528 Z" id="C-Copy-2" fill="#FFFFFF" sketch:type="MSShapeGroup"></path>
            </g>
        </g>
    </g>
</svg>