<?xml version="1.0" encoding="UTF-8" standalone="no"?>
<svg width="51px" height="52px" viewBox="0 0 51 52" version="1.1" xmlns="http://www.w3.org/2000/svg" xmlns:xlink="http://www.w3.org/1999/xlink" xmlns:sketch="http://www.bohemiancoding.com/sketch/ns">
    <!-- Generator: Sketch 3.3.3 (12081) - http://www.bohemiancoding.com/sketch -->
    <title>Imported Layers + Oval 19 Copy 6</title>
    <desc>Created with Sketch.</desc>
    <defs>
        <path id="path-1" d="M6.6679322,40.1670508 C6.09762712,40.1670508 5.6420339,40.6267119 5.6420339,41.1937627 C5.6420339,41.76 6.09762712,42.2188475 6.6679322,42.2188475 C7.23010169,42.2188475 7.69383051,41.76 7.69383051,41.1937627 C7.69383051,40.6267119 7.23010169,40.1670508 6.6679322,40.1670508"></path>
        <path id="path-2" d="M9.74481356,37.0893559 C9.17532203,37.0893559 8.71891525,37.5490169 8.71891525,38.1160678 C8.71891525,38.6839322 9.17532203,39.1419661 9.74481356,39.1419661 C10.3086102,39.1419661 10.7707119,38.6839322 10.7707119,38.1160678 C10.7707119,37.5490169 10.3086102,37.0893559 9.74481356,37.0893559"></path>
    </defs>
    <g id="case-studies" stroke="none" stroke-width="1" fill="none" fill-rule="evenodd" sketch:type="MSPage">
        <g id="school-improvement-case-study" sketch:type="MSArtboardGroup" transform="translate(-323.000000, -5024.000000)">
            <g id="Imported-Layers-+-Oval-19-Copy-6" sketch:type="MSLayerGroup" transform="translate(324.000000, 5026.000000)">
                <g id="Imported-Layers" transform="translate(0.500000, 0.214852)">
                    <path d="M28.7511864,10.9732881 L35.4964068,4.22969492 L43.6311864,12.3652881 L36.8737627,19.1227119 M9.70169492,30.0235932 L0.512542373,39.1419661 L0.512542373,47.348339 L8.71891525,47.348339 L17.8454237,38.1510508" id="Stroke-2" stroke="#B4EC51" stroke-width="3" stroke-linejoin="round" sketch:type="MSShapeGroup"></path>
                    <path d="M35.4964068,4.22969492 L39.5633898,0.161898305 L47.6997966,8.36908475 L43.6311864,12.3652881 M39.5633898,8.29749153 L43.5953898,4.26467797" id="Stroke-3" stroke="#B4EC51" stroke-width="3" stroke-linecap="round" stroke-linejoin="round" sketch:type="MSShapeGroup"></path>
                    <g id="Fill-4">
                        <use fill="none" sketch:type="MSShapeGroup" xlink:href="#path-1"></use>
                        <use fill="#B4EC51" fill-rule="evenodd" xlink:href="#path-1"></use>
                    </g>
                    <g id="Fill-5">
                        <use fill="none" sketch:type="MSShapeGroup" xlink:href="#path-2"></use>
                        <use fill="#B4EC51" fill-rule="evenodd" xlink:href="#path-2"></use>
                    </g>
                    <path d="M37.9370847,24.568678 C37.9370847,32.6562712 31.3781695,39.2127458 23.2930169,39.2127458 C15.2013559,39.2127458 8.64894915,32.6562712 8.64894915,24.568678 C8.64894915,16.4802712 15.2013559,9.92461017 23.2930169,9.92461017 C31.3781695,9.92461017 37.9370847,16.4802712 37.9370847,24.568678 L37.9370847,24.568678 Z M23.2930169,19.6515254 L23.2930169,24.7802034 L29.2352542,30.9355932 L23.2930169,19.6515254 Z" id="Stroke-1" stroke="#FFFFFF" stroke-width="3" stroke-linecap="round" stroke-linejoin="round" sketch:type="MSShapeGroup"></path>
                </g>
            </g>
        </g>
    </g>
</svg>