<?xml version="1.0" encoding="UTF-8" standalone="no"?>
<svg viewBox="0 0 41 41" version="1.1" xmlns="http://www.w3.org/2000/svg" xmlns:xlink="http://www.w3.org/1999/xlink" xmlns:sketch="http://www.bohemiancoding.com/sketch/ns">
    <g id="Page-1" stroke="none" stroke-width="1" fill="none" fill-rule="evenodd" sketch:type="MSPage">
        <g id="Group" sketch:type="MSLayerGroup" fill="#000000">
            <path d="M20.5,41 C31.8218374,41 41,31.8218374 41,20.5 C41,9.17816263 31.8218374,0 20.5,0 C9.17816263,0 0,9.17816263 0,20.5 C0,31.8218374 9.17816263,41 20.5,41 L20.5,41 Z M20.5,39 C10.2827321,39 2,30.7172679 2,20.5 C2,10.2827321 10.2827321,2 20.5,2 C30.7172679,2 39,10.2827321 39,20.5 C39,30.7172679 30.7172679,39 20.5,39 L20.5,39 Z" id="Shape" sketch:type="MSShapeGroup"></path>
            <circle id="path-2" sketch:type="MSShapeGroup" cx="13.5" cy="20.5" r="2.5"></circle>
            <circle id="path-3" sketch:type="MSShapeGroup" cx="20.5" cy="20.5" r="2.5"></circle>
            <circle id="path-4" sketch:type="MSShapeGroup" cx="27.5" cy="20.5" r="2.5"></circle>
        </g>
    </g>
</svg>
