<?xml version="1.0" encoding="UTF-8" standalone="no"?>
<svg viewBox="0 0 8 14" version="1.1" xmlns="http://www.w3.org/2000/svg" xmlns:xlink="http://www.w3.org/1999/xlink" xmlns:sketch="http://www.bohemiancoding.com/sketch/ns">
    <g id="//-thoughts" stroke="none" stroke-width="1" fill="none" fill-rule="evenodd" sketch:type="MSPage">
        <g id="blog" sketch:type="MSArtboardGroup" transform="translate(-1075.000000, -723.000000)" fill="#000000">
            <path d="M1075.34867,724.76 L1080.588,729.996667 L1075.28033,735.306667 C1075.107,735.486667 1075,735.73 1075,736 C1075,736.553333 1075.448,737 1076,737 C1076.26967,737 1076.51433,736.893333 1076.694,736.72 L1076.69433,736.72 L1082.69433,730.72 L1082.694,730.72 C1082.88267,730.536667 1083,730.283333 1083,730 C1083,730 1083,730 1083,729.996667 C1083,729.713333 1082.88267,729.456667 1082.694,729.276667 L1082.69433,729.276667 L1076.69433,723.276667 L1076.692,723.276667 C1076.51233,723.106667 1076.26867,723 1076,723 C1075.448,723 1075,723.446667 1075,724 C1075,724.303333 1075.13533,724.573333 1075.34867,724.76" id="Fill-186" sketch:type="MSShapeGroup"></path>
        </g>
    </g>
</svg>
