<?xml version="1.0" encoding="UTF-8" standalone="no"?>
<svg viewBox="0 0 10 7" version="1.1" xmlns="http://www.w3.org/2000/svg" xmlns:xlink="http://www.w3.org/1999/xlink" xmlns:sketch="http://www.bohemiancoding.com/sketch/ns">
    <g id="//-contact" stroke="none" stroke-width="1" fill="none" fill-rule="evenodd" sketch:type="MSPage">
        <g id="contact-dropdown" sketch:type="MSArtboardGroup" transform="translate(-333.000000, -519.000000)" fill="#0A0B09">
            <path d="M342.790952,520.235862 L342.790952,520.235862 L337.314762,525.787586 C337.185476,525.917931 337.006905,526 336.809524,526 C336.612381,526 336.43381,525.917931 336.304524,525.787586 L333.209286,522.649655 C333.08,522.51931 333,522.338276 333,522.137931 C333,521.737241 333.32,521.413793 333.714286,521.413793 C333.911667,521.413793 334.090238,521.495862 334.219524,521.626207 L336.809524,524.252414 L341.780714,519.212414 C341.91,519.082069 342.088571,519 342.285714,519 C342.680238,519 343,519.323448 343,519.724138 C343,519.924483 342.920238,520.105517 342.790952,520.235862" id="Fill-186" sketch:type="MSShapeGroup"></path>
        </g>
    </g>
</svg>
